PathFileType	4	(X/Y/Z)	Patient4_TMGait_0pt4_02_left_35.trc.trc
DataRate	CameraRate	NumFrames	NumMarkers	Units	OrigDataRate	OrigDataStartFrame	OrigNumFrames
74.074074074074	74.074074074074	4	33	mm	74.074074074074	36	       141
Frame#	Time	Sacral			L.Shoulder			Chest			R.Shoulder			Neck			R.ASIS			L.ASIS			R.Thigh.Superior			R.Thigh.Lateral			R.Thigh.Inferior			R.Patella			L.Thigh.Superior			L.Thigh.Lateral			L.Thigh.Inferior			L.Patella			L.Shank.Superior			L.Shank.Lateral			L.Shank.Inferior			R.Shank.Superior			R.Shank.Lateral			R.Shank.Inferior			R.Heel			R.Midfoot.Superior			R.Midfoot.Lateral			R.Toe			L.Heel			L.Midfoot.Lateral			L.Midfoot.Superior			L.Toe			L.Elbow			L.Wrist			R.Elbow			R.Wrist			
		X1	Y1	Z1	X2	Y2	Z2	X3	Y3	Z3	X4	Y4	Z4	X5	Y5	Z5	X6	Y6	Z6	X7	Y7	Z7	X8	Y8	Z8	X9	Y9	Z9	X10	Y10	Z10	X11	Y11	Z11	X12	Y12	Z12	X13	Y13	Z13	X14	Y14	Z14	X15	Y15	Z15	X16	Y16	Z16	X17	Y17	Z17	X18	Y18	Z18	X19	Y19	Z19	X20	Y20	Z20	X21	Y21	Z21	X22	Y22	Z22	X23	Y23	Z23	X24	Y24	Z24	X25	Y25	Z25	X26	Y26	Z26	X27	Y27	Z27	X28	Y28	Z28	X29	Y29	Z29	X30	Y30	Z30	X31	Y31	Z31	X32	Y32	Z32	X33	Y33	Z33	

36	47.262500000000	832.396483848208	1000.377140359360	485.273728940399	966.104928493233	1434.954018137072	295.064650128797	1094.059093069042	1368.100064976217	437.864739602083	1035.128703725645	1433.904094563912	624.489478088381	970.663260991789	1493.647358073521	454.033580519772	1072.674750426020	940.805577400740	576.330738225305	1028.805081790279	960.900623749246	304.707193321267	1074.262607736720	727.841688884774	555.595030815559	976.481736166305	632.168352189079	626.076067840706	1038.081389984858	564.744216121288	547.974396833235	1020.354742673314	471.650256879028	560.715940387035	1103.693881248440	764.123657972588	330.564978606879	1034.859503003956	636.980429282258	267.434901843665	1136.266196883674	572.096339667413	321.765483691119	1147.696978396606	500.040909559668	325.015229471946	1122.180602050244	425.719055581764	316.985106365087	1033.533270122333	309.441336928432	268.854355097404	1095.975602022942	197.448040969222	328.641249481353	967.465319087745	393.787013286502	570.863131888142	871.247517324017	315.602157909835	637.819750458262	886.674704154169	209.703285263943	579.240054141529	718.621978439878	67.386063900993	557.659775626684	895.996818261095	99.574329461750	588.284359725920	803.163035284454	46.215221599384	628.147540237768	1009.501411676066	38.028185416081	609.070136260109	978.736533495927	38.908085384564	373.846002715105	1046.636041792738	36.195451964466	288.152598214982	1131.462240091520	98.249757046202	309.719768790242	1257.550220750140	46.331275406678	271.593174287778	902.331782793624	1086.596578630626	182.529264173992	974.754943783600	834.127156633895	168.416157510456	1132.291124133670	1105.133271679536	749.303380919577	1382.301264973293	1104.131991141023	707.233259575477	
37	47.276000000000	832.260382611603	1000.901240764398	481.015439822012	967.302006298006	1435.373273671140	291.083895399861	1094.379545659065	1368.480551538825	434.640065424650	1034.462369058909	1434.447748743359	620.889334197218	970.999511113128	1494.189724195135	449.915632822996	1071.832971432816	941.359592556793	573.254821242253	1029.572062619332	961.102162519029	301.456142500930	1074.878318397503	728.415759836972	553.528063508253	977.550894930951	632.422014060457	623.910290409532	1040.460347172245	564.955757934541	546.475826370449	1023.500554262842	470.652469063499	560.377978893999	1103.637458339906	763.881442175748	326.759074554224	1032.688621076804	636.597898300972	265.391471635973	1134.119046709535	571.260640005121	318.874811088272	1145.106582893939	499.473425370271	323.322339393255	1119.329160187915	425.018167371536	315.667807193847	1030.079359613592	309.090754460613	267.662824335532	1091.527200356132	196.997385257419	328.264262678649	968.712331791821	393.680501390985	570.256324648721	870.632424325362	317.602309279483	636.901450442275	884.893687656967	211.030614285555	579.255223539744	714.337498019106	71.474698607588	557.881502517422	892.307471737012	100.010776130537	588.488474602042	798.449779955041	48.219446403655	628.132565294783	1004.270090972183	37.845404613400	609.007674073072	973.321268810849	38.844483745010	373.792659551072	1041.179996448672	36.067758246172	288.033591864783	1126.078830557011	98.059828366536	309.690250920714	1252.184308463078	45.985477702817	271.512956501235	909.129773678386	1086.612198161418	175.717772725384	991.736616600761	837.255207645458	160.113169021155	1124.429990226486	1103.942402130562	747.450555093273	1374.756810337345	1086.520471733966	707.980800725270	
38	47.289500000000	832.014512742266	1001.467531592899	476.707057081981	968.696933836855	1435.839666666944	287.002964682847	1094.727809729658	1368.885788769919	431.443151077701	1033.652711727919	1435.015202354831	617.250682281776	971.330380433822	1494.775259882737	445.689080999166	1070.824407505815	941.990559954703	570.306440114671	1030.358277245307	961.273670234234	298.321604459075	1075.999487225579	729.178799068689	551.601006009804	979.423290041883	632.606059796547	621.830185979525	1043.906086556019	565.258823771092	545.097197362200	1027.818467561345	469.648117806817	560.196482349440	1103.301821933843	763.398915232351	323.064750909353	1030.223532563271	636.241745530427	263.319411988226	1131.526184954547	570.377244303580	316.144900166278	1142.034093797186	498.870834039724	321.619355979733	1116.034323805431	424.323365173808	314.293775864828	1026.253968685329	308.665837076625	266.430313292325	1086.869834919296	196.539661188567	327.831361916071	971.030548678420	393.603231758706	569.753483084731	870.966494232239	319.891289133987	636.055875017885	883.819445240236	212.656226278072	579.348757970025	710.471940482924	76.502693884558	558.137090166771	888.978103994531	100.575859772632	588.668171458605	793.955456030956	50.818026339628	628.107207223142	999.030552196360	37.606358494266	608.948133338615	967.841128536510	38.764934388661	373.754065198402	1035.663142364613	35.911205498151	287.930100038186	1120.639031477842	97.831484375945	309.672405656572	1246.766748756244	45.604254113195	271.483944263934	915.976642358715	1086.875033272607	168.792859635568	1008.958858281460	841.152078564252	151.855713290056	1116.327272115906	1102.925483239353	745.422062195451	1365.827738575671	1068.535969458794	708.594846869005	
39	47.303000000000	831.621520662563	1002.084220594710	472.390833620595	970.301606680347	1436.335230718022	282.855078711368	1095.108507856750	1369.292155021068	428.307883329766	1032.714776022666	1435.609317386217	613.596735450514	971.672993951492	1495.391591474030	441.392189597149	1069.634935940509	942.684603301770	567.505413281273	1031.106964879169	961.430571143151	295.318726191613	1077.669896628927	730.171018134909	549.790920190328	982.230976386256	632.727820176053	619.849050056292	1048.533506714556	565.697218106007	543.825404978126	1033.424300209738	468.696181177245	560.141501740948	1102.663008878830	762.748583438695	319.577411078035	1027.571420942118	635.989922919887	261.179893952311	1128.528697803286	569.499982124800	313.617225293940	1138.492073432181	498.260162506951	319.897130073143	1112.315612645131	423.665389737756	312.844624783753	1022.089801399038	308.197587193378	265.120751446132	1082.026988487108	196.103941571488	327.318836819948	974.553816027156	393.596790773225	569.336407378661	872.405989806906	322.531632793504	635.286733041003	883.553986583054	214.662471174055	579.510742029356	707.146625006849	82.681209455063	558.423557340601	886.068001553403	101.370290541218	588.825147202745	789.749417260631	54.189037880213	628.080963605256	993.786138616802	37.272059705735	608.909087980015	962.327874323551	38.684257107508	373.709715727920	1030.118529411048	35.740776265144	287.823786132611	1115.167437952423	97.592255984164	309.638046441341	1241.325488363068	45.228407060232	271.484276899877	922.926455505324	1087.366788909003	161.768984583457	1026.354213599354	845.796377124064	143.691676517292	1107.944209973973	1102.052522941078	743.213991875039	1355.376686364590	1050.312160528562	709.109279049882	
